<?xml version="1.0" encoding="UTF-8"?>
<svg width="16px" height="17px" viewBox="0 0 16 17" version="1.1" xmlns="http://www.w3.org/2000/svg" xmlns:xlink="http://www.w3.org/1999/xlink">
    <!-- Generator: Sketch 51.2 (57519) - http://www.bohemiancoding.com/sketch -->
    <title>Combined Shape</title>
    <desc>Created with Sketch.</desc>
    <defs></defs>
    <g id="Page-1" stroke="none" stroke-width="1" fill="none" fill-rule="evenodd">
        <g id="公共组件-copy" transform="translate(-341.000000, -19.000000)" fill="#00BCD4" fill-rule="nonzero">
            <path d="M353.437232,21.954749 L352.260748,20.7872701 C351.868726,20.3982489 351.866294,19.7650886 352.255315,19.3730669 C352.644336,18.9810452 353.277496,18.9786128 353.669518,19.3676339 L356.709555,22.384402 C356.894982,22.5684104 356.993254,22.8070537 357.004151,23.0489683 C357.007637,23.1122224 357.005134,23.1767284 356.996147,23.2418345 C356.959168,23.5097462 356.819263,23.7381375 356.621858,23.8926007 L353.73935,26.8018925 C353.350635,27.1942186 352.717477,27.1971465 352.325151,26.8084323 C351.932825,26.4197181 351.929897,25.7865599 352.318611,25.3942339 L353.751065,23.9484703 C351.9601,23.9635113 350.515568,24.3800716 349.400958,25.1807896 C347.845257,26.2983801 346.972277,27.5521644 346.724922,28.9615021 C346.629449,29.5054721 346.111078,29.8690507 345.567108,29.7735777 C345.023138,29.6781047 344.659559,29.1597338 344.755032,28.6157638 C345.099238,26.6546094 346.277951,24.9617273 348.234078,23.5564772 C349.641124,22.5456773 351.380508,22.017025 353.437232,21.954749 Z M354.992319,29.1010309 C354.992319,28.5487462 355.440034,28.1010309 355.992319,28.1010309 C356.544604,28.1010309 356.992319,28.5487462 356.992319,29.1010309 L356.992319,34.1173691 C356.992319,34.6696539 356.544604,35.1173691 355.992319,35.1173691 L342,35.1173691 C341.447715,35.1173691 341,34.6696539 341,34.1173691 L341,20 C341,19.4477153 341.447715,19 342,19 L348.0164,19 C348.568684,19 349.0164,19.4477153 349.0164,20 C349.0164,20.5522847 348.568684,21 348.0164,21 L343,21 L343,33.1173691 L354.992319,33.1173691 L354.992319,29.1010309 Z" id="Combined-Shape"></path>
        </g>
    </g>
</svg>